# exported with NifSkope

mtllib winterholdextcenter01_lod.mtl

# WinterholdExtCenter01_LOD:1

g WinterholdExtCenter01_LOD:1
usemtl Material.000001

v 916.9251708984375 1194.9598388671875 -48.000011444091797
v 576.4034423828125 1391.560302734375 -48.000011444091797
v -9.8881719168275595e-06 -2.4414039216935635e-06 -48.000007629394531
v 196.60069274902344 1493.328125 -48.000011444091797
v -196.59994506835938 1493.328369140625 -48.000011444091797
v -576.40264892578125 1391.560546875 -48.000011444091797
v -916.92462158203125 1194.960205078125 -48.000011444091797
v -1194.9595947265625 916.925537109375 -48.000011444091797
v -1391.5599365234375 576.40386962890625 -48.000011444091797
v -1493.328125 196.60121154785156 -48.000011444091797
v -1493.328369140625 -196.59950256347656 -48.000011444091797
v -1391.560546875 -576.40277099609375 -48.000011444091797
v -1194.9598388671875 -916.925048828125 -48.000011444091797
v -916.92498779296875 -1194.9599609375 -48.000011444091797
v -576.40325927734375 -1391.560302734375 -48.000011444091797
v -196.59979248046875 -1493.328369140625 -48.000011444091797
v 196.60018920898438 -1493.328125 -48.000011444091797
v 576.40362548828125 -1391.560302734375 -48.000011444091797
v 916.92529296875 -1194.959716796875 -48.000011444091797
v 1194.960205078125 -916.92474365234375 -48.000011444091797
v 1391.560302734375 -576.4029541015625 -48.000011444091797
v 1493.3282470703125 -196.60025024414063 -48.000011444091797
v 1493.328125 196.60041809082031 -48.000011444091797
v 1391.560302734375 576.4031982421875 -48.000011444091797
v 1194.9600830078125 916.9249267578125 -48.000011444091797
v -196.59979248046875 -1493.328369140625 -48.000011444091797
v 196.60018920898438 -1493.328125 -48.000011444091797
v -9.8881719168275595e-06 -2.4414039216935635e-06 -48.000007629394531
vt 0.90234375 0.42529296875
vt 0.85009765625 0.45556640625
vt 0.76123046875 0.2412109375
vt 0.79150390625 0.47119140625
vt 0.73095703125 0.47119140625
vt 0.6728515625 0.45556640625
vt 0.6201171875 0.42529296875
vt 0.57763671875 0.38232421875
vt 0.54736328125 0.330078125
vt 0.53173828125 0.271484375
vt 0.53173828125 0.2109375
vt 0.54736328125 0.15283203125
vt 0.57763671875 0.1005859375
vt 0.6201171875 0.0576171875
vt 0.6728515625 0.02734375
vt 0.73095703125 0.01171875
vt 0.79150390625 0.01171875
vt 0.85009765625 0.02734375
vt 0.90234375 0.0576171875
vt 0.94482421875 0.1005859375
vt 0.97509765625 0.15283203125
vt 0.99072265625 0.2109375
vt 0.99072265625 0.271484375
vt 0.97509765625 0.330078125
vt 0.94482421875 0.38232421875
vt 0.73095703125 0.01171875
vt 0.79150390625 0.01171875
vt 0.76123046875 0.2412109375
vn -0.0039215688593685627 -0.0039215688593685627 1
vn -0.0039215688593685627 -0.0039215688593685627 1
vn -0.0039215688593685627 -0.0039215688593685627 1
vn -0.0039215688593685627 -0.0039215688593685627 1
vn -0.0039215688593685627 -0.0039215688593685627 1
vn -0.0039215688593685627 -0.0039215688593685627 1
vn -0.0039215688593685627 -0.0039215688593685627 1
vn -0.0039215688593685627 -0.0039215688593685627 1
vn -0.0039215688593685627 -0.0039215688593685627 1
vn -0.0039215688593685627 -0.0039215688593685627 1
vn -0.0039215688593685627 -0.0039215688593685627 1
vn -0.0039215688593685627 -0.0039215688593685627 1
vn -0.0039215688593685627 -0.0039215688593685627 1
vn -0.0039215688593685627 -0.0039215688593685627 1
vn -0.0039215688593685627 -0.0039215688593685627 1
vn -0.0039215688593685627 -0.0039215688593685627 1
vn -0.0039215688593685627 -0.0039215688593685627 1
vn -0.0039215688593685627 -0.0039215688593685627 1
vn -0.0039215688593685627 -0.0039215688593685627 1
vn -0.0039215688593685627 -0.0039215688593685627 1
vn -0.0039215688593685627 -0.0039215688593685627 1
vn -0.0039215688593685627 -0.0039215688593685627 1
vn -0.0039215688593685627 -0.0039215688593685627 1
vn -0.0039215688593685627 -0.0039215688593685627 1
vn -0.0039215688593685627 -0.0039215688593685627 1
vn -0.0039215688593685627 -0.0039215688593685627 1
vn -0.0039215688593685627 -0.0039215688593685627 1
vn -0.0039215688593685627 -0.0039215688593685627 1
f 1/1/1 2/2/2 3/3/3
f 2/2/2 4/4/4 3/3/3
f 4/4/4 5/5/5 3/3/3
f 5/5/5 6/6/6 3/3/3
f 6/6/6 7/7/7 3/3/3
f 7/7/7 8/8/8 3/3/3
f 8/8/8 9/9/9 3/3/3
f 9/9/9 10/10/10 3/3/3
f 10/10/10 11/11/11 3/3/3
f 11/11/11 12/12/12 3/3/3
f 12/12/12 13/13/13 3/3/3
f 14/14/14 15/15/15 3/3/3
f 13/13/13 14/14/14 3/3/3
f 15/15/15 16/16/16 3/3/3
f 17/17/17 18/18/18 3/3/3
f 18/18/18 19/19/19 3/3/3
f 19/19/19 20/20/20 3/3/3
f 20/20/20 21/21/21 3/3/3
f 21/21/21 22/22/22 3/3/3
f 22/22/22 23/23/23 3/3/3
f 23/23/23 24/24/24 3/3/3
f 24/24/24 25/25/25 3/3/3
f 25/25/25 1/1/1 3/3/3
f 26/26/26 27/27/27 28/28/28
